<?xml version="1.0" encoding="utf-8"?>
<!-- Generator: Adobe Illustrator 25.1.0, SVG Export Plug-In . SVG Version: 6.00 Build 0)  -->
<svg version="1.1" id="Layer_1" xmlns="http://www.w3.org/2000/svg" xmlns:xlink="http://www.w3.org/1999/xlink" x="0px" y="0px"
	 viewBox="0 0 170 42" style="enable-background:new 0 0 170 42;" xml:space="preserve">
<style type="text/css">
	.st0{fill:#3F3F3F;}
	.st1{fill:#DFDFDF;}
	.st2{fill:#2DCAFF;}
</style>
<rect class="st0" width="170" height="42"/>
<g>
	<g id="text">
		<path id="path48" class="st1" d="M75.3,29c-1,0-1.8-0.8-1.8-1.7c0,0,0,0,0,0v-6.3c0-4.5,3.6-8.1,8.1-8.1c1,0,1.7,0.9,1.7,1.8
			c0,0.9-0.8,1.6-1.7,1.7c-2.5,0-4.6,2-4.6,4.6v6.4C77,28.3,76.3,29,75.3,29C75.3,29,75.3,29,75.3,29"/>
		<g id="g4575">
			<path id="path40" class="st1" d="M71.4,20.4v1c0-0.2,0-0.3,0-0.5S71.4,20.6,71.4,20.4z"/>
			<path class="st1" d="M71.4,21.4v-1v-5.8c0-1-0.8-1.8-1.7-1.8c-0.8,0-1.6,0.6-1.7,1.4c-3.7-2.5-8.7-1.6-11.2,2.1
				c-2.5,3.7-1.6,8.7,2.1,11.2c2.8,1.9,6.4,1.9,9.2,0v0.9c0,2.5-2.1,4.6-4.6,4.6l-3.2,0c-1,0-1.8,0.8-1.8,1.8c0,1,0.8,1.8,1.8,1.8
				l3.2,0c4.5,0,8.1-3.6,8.1-8.1L71.4,21.4z M67.9,21.3c-0.2,2.5-2.4,4.4-5,4.2c-2.5-0.2-4.4-2.4-4.2-5c0.2-2.5,2.4-4.4,5-4.2
				c2.2,0.2,4,2,4.2,4.2c0,0.1,0,0.3,0,0.4C67.9,21.1,67.9,21.2,67.9,21.3z"/>
			<path class="st1" d="M67.9,20.9c0,0.1,0,0.3,0,0.4v-0.8C67.9,20.7,67.9,20.8,67.9,20.9z"/>
		</g>
		<path class="st1" d="M98.2,12.9c-0.9,0-1.7,0.7-1.7,1.6c-3.6-2.6-8.7-1.9-11.3,1.7c-2.6,3.6-1.9,8.7,1.7,11.3
			c2.8,2.1,6.7,2.1,9.6,0c0.1,1,1,1.7,1.9,1.5c0.9-0.1,1.5-0.8,1.6-1.7V14.6C100,13.6,99.2,12.9,98.2,12.9
			C98.2,12.9,98.2,12.9,98.2,12.9z M91.7,25.5c-2.5,0-4.6-2-4.6-4.6s2-4.6,4.6-4.6c2.5,0,4.6,2,4.6,4.6S94.2,25.5,91.7,25.5z"/>
		<path id="path60" class="st1" d="M115.9,12.9L115.9,12.9c-1.5,0-3,0.6-4,1.7c-1.1-1.1-2.5-1.7-4-1.7l0,0c-3.2,0-5.7,2.6-5.7,5.7
			c0,0,0,0,0,0v8.6c0,1,0.8,1.7,1.7,1.7c1,0,1.7-0.8,1.7-1.7v-8.6c0-1.2,0.9-2.3,2.1-2.4c1.3-0.1,2.3,0.9,2.4,2.1c0,0.1,0,0.1,0,0.2
			v8.7c0,0.9,0.8,1.7,1.7,1.7h0.1c0.9,0,1.7-0.8,1.7-1.7v-8.7c0-1.3,1-2.3,2.3-2.3l0,0c1.3,0,2.3,1,2.3,2.3v8.7c0,1,0.8,1.7,1.7,1.7
			c1,0,1.7-0.8,1.7-1.7v-8.6C121.6,15.5,119.1,12.9,115.9,12.9"/>
		<path id="path64" class="st1" d="M137.6,12.9L137.6,12.9c-1.5,0-3,0.6-4,1.7c-1.1-1.1-2.5-1.7-4-1.7l0,0c-3.2,0-5.7,2.6-5.7,5.7
			v8.6c0,1,0.8,1.7,1.7,1.7c1,0,1.7-0.8,1.7-1.7v-8.6c0-1.2,0.9-2.3,2.1-2.4c1.3-0.1,2.3,0.9,2.4,2.1c0,0.1,0,0.1,0,0.2v8.7
			c0,0.9,0.8,1.7,1.7,1.7h0.1c0.9,0,1.7-0.8,1.7-1.7v-8.7c0-1.3,1-2.3,2.3-2.3l0,0c1.3,0,2.3,1,2.3,2.3v8.7c0,1,0.8,1.7,1.7,1.7
			c1,0,1.7-0.8,1.7-1.7v-8.6C143.3,15.5,140.8,12.9,137.6,12.9"/>
		<path id="path68" class="st1" d="M159.3,12.9L159.3,12.9c-1.5,0-3,0.6-4,1.7c-1.1-1.1-2.5-1.7-4-1.7l0,0c-3.2,0-5.7,2.6-5.7,5.7
			v8.6c0,1,0.8,1.7,1.7,1.7c1,0,1.7-0.8,1.7-1.7v-8.6c0-1.2,0.9-2.3,2.1-2.4c1.3-0.1,2.3,0.9,2.4,2.1c0,0.1,0,0.1,0,0.2v8.7
			c0,0.9,0.8,1.7,1.7,1.7h0.1c0.9,0,1.7-0.8,1.7-1.7v-8.7c0-1.3,1-2.3,2.3-2.3l0,0c1.3,0,2.3,1,2.3,2.3v8.7c0,1,0.8,1.7,1.7,1.7
			c0,0,0,0,0,0l0,0c0.9,0,1.7-0.8,1.7-1.7v-8.6C165,15.5,162.4,12.9,159.3,12.9L159.3,12.9"/>
	</g>
	<g id="icon">
		<path id="path92" class="st1" d="M50.4,3.2L37.8,8.9l4.9,8.1l7.8-13.5V3.2z"/>
		<path id="path72" class="st1" d="M17.3,10.4L18.2,1H5.4L17.3,10.4z"/>
		<path id="path76" class="st2" d="M17.6,21.8l7.5,0.9L19.2,16L17.6,21.8z"/>
		<path id="path80" class="st2" d="M16.9,13.7L5,4.3c1.4,2.4,4.9,8.5,9.8,17L16.9,13.7z"/>
		<path id="path84" class="st2" d="M20.1,11.2l14-3.9L32.7,1H21L20.1,11.2z"/>
		<path id="path88" class="st2" d="M33.5,10.4l-12.4,3.5l7.9,8.9L33.5,10.4z"/>
		<path id="path96" class="st2" d="M36.7,6.3L48.4,1H35.6L36.7,6.3z"/>
		<path id="path100" class="st2" d="M32.1,22.3l8.4-1.7l0.5-0.9l-5-8.2L32.1,22.3z"/>
		<path id="path104" class="st1" d="M27.1,25.7l-10.4-1.2c4.7,8.1,8.6,14.8,9.5,16.5L27.1,25.7z"/>
		<path id="path108" class="st2" d="M29.9,26.6l-0.8,13.9l5.3-9.1L29.9,26.6z"/>
		<path id="path112" class="st2" d="M32.4,25.2l3.4,3.7l2.8-4.9L32.4,25.2z"/>
	</g>
</g>
</svg>
