<?xml version="1.0" encoding="utf-8"?>
<!-- Generator: Adobe Illustrator 25.1.0, SVG Export Plug-In . SVG Version: 6.00 Build 0)  -->
<svg version="1.1" id="Layer_1" xmlns="http://www.w3.org/2000/svg" xmlns:xlink="http://www.w3.org/1999/xlink" x="0px" y="0px"
	 viewBox="0 0 62 34" style="enable-background:new 0 0 62 34;" xml:space="preserve">
<style type="text/css">
	.st0{fill:#DFDFDF;}
	.st1{fill:#2DCAFF;}
</style>
<g>
	<path id="path92_1_" class="st0" d="M46.9,4.5l-8.9,4l3.4,5.6l5.5-9.5L46.9,4.5z"/>
	<path id="path72_1_" class="st0" d="M23.7,9.6L24.3,3h-9L23.7,9.6z"/>
	<path id="path76_1_" class="st1" d="M23.9,17.5l5.2,0.6L25,13.5L23.9,17.5z"/>
	<path id="path80_1_" class="st1" d="M23.4,11.9l-8.3-6.5l6.9,11.9L23.4,11.9z"/>
	<path id="path84_1_" class="st1" d="M25.7,10.1l9.8-2.7L34.5,3h-8.2L25.7,10.1z"/>
	<path id="path88_1_" class="st1" d="M35,9.6L26.3,12l5.5,6.2L35,9.6z"/>
	<path id="path96_1_" class="st1" d="M37.3,6.7L45.5,3h-9L37.3,6.7z"/>
	<path id="path100_1_" class="st1" d="M34.1,17.9l5.9-1.2l0.3-0.6l-3.5-5.8L34.1,17.9z"/>
	<path id="path104_1_" class="st0" d="M30.5,20.3l-7.3-0.8L29.9,31L30.5,20.3z"/>
	<path id="path108_1_" class="st1" d="M32.5,20.9l-0.6,9.7l3.7-6.4L32.5,20.9z"/>
	<path id="path112_1_" class="st1" d="M34.3,19.9l2.4,2.6l2-3.4L34.3,19.9z"/>
</g>
</svg>
