<?xml version="1.0" encoding="utf-8"?>
<!-- Generator: Adobe Illustrator 25.1.0, SVG Export Plug-In . SVG Version: 6.00 Build 0)  -->
<svg version="1.1" id="Layer_1" xmlns="http://www.w3.org/2000/svg" xmlns:xlink="http://www.w3.org/1999/xlink" x="0px" y="0px"
	 viewBox="0 0 280 70" style="enable-background:new 0 0 280 70;" xml:space="preserve">
<style type="text/css">
	.st0{fill:#3F3F3F;}
	.st1{fill:#2DCAFF;}
</style>
<g>
	<g id="text">
		<path id="path48" class="st0" d="M123,49c-1.7,0-3.1-1.4-3.1-3c0,0,0,0,0,0V34.9c0-7.8,6.3-14.1,14.2-14.1c1.7,0.1,3,1.5,2.9,3.2
			c-0.1,1.6-1.3,2.9-2.9,2.9c-4.4,0-8,3.6-8,8V46C126.1,47.7,124.7,49.1,123,49C123,49,123,49,123,49"/>
		<g id="g4575">
			<path id="path40" class="st0" d="M116.1,34v1.8c0-0.3,0-0.6,0-0.9S116.2,34.3,116.1,34z"/>
			<path class="st0" d="M116.1,35.8V34V23.8c0-1.7-1.4-3.1-3.1-3.1c-1.5,0-2.8,1.1-3,2.5c-6.4-4.4-15.3-2.8-19.7,3.6
				S87.6,42.1,94,46.6c4.8,3.3,11.2,3.3,16.1,0v1.6c0,4.4-3.6,8-8,8l-5.6,0c-1.7,0-3.1,1.4-3.1,3.1c0,1.7,1.4,3.1,3.1,3.1l5.6,0
				c7.8,0,14.1-6.3,14.2-14.2L116.1,35.8z M110,35.6c-0.4,4.4-4.3,7.7-8.7,7.3c-4.4-0.4-7.7-4.3-7.3-8.7c0.4-4.4,4.3-7.7,8.7-7.3
				c3.9,0.3,7,3.4,7.3,7.3c0,0.2,0,0.5,0,0.7C110,35.1,110,35.4,110,35.6z"/>
			<path class="st0" d="M110,34.9c0,0.2,0,0.5,0,0.7v-1.4C110,34.4,110,34.7,110,34.9z"/>
		</g>
		<path class="st0" d="M163.1,20.8c-1.6,0-2.9,1.2-3.1,2.8c-6.3-4.6-15.2-3.3-19.8,3s-3.3,15.2,3,19.8c5,3.7,11.8,3.7,16.8,0
			c0.2,1.7,1.7,2.9,3.4,2.7c1.5-0.2,2.7-1.5,2.7-3V23.8C166.2,22.1,164.8,20.7,163.1,20.8C163.1,20.7,163.1,20.7,163.1,20.8z
			 M151.7,42.9c-4.4,0-8-3.6-8-8s3.6-8,8-8s8,3.6,8,8S156.1,42.9,151.7,42.9z"/>
		<path id="path60" class="st0" d="M194.1,20.8L194.1,20.8c-2.7,0-5.2,1-7.1,2.9c-1.9-1.9-4.4-2.9-7.1-2.9l0,0
			c-5.5,0-10,4.5-10.1,10c0,0,0,0,0,0V46c0,1.7,1.4,3,3,3c1.7,0,3-1.4,3-3v-15c0-2.1,1.6-3.9,3.7-4.1c2.2-0.1,4.1,1.5,4.3,3.7
			c0,0.1,0,0.2,0,0.3V46c0,1.7,1.3,3,3,3h0.1c1.7,0,3-1.3,3-3V30.8c0-2.2,1.8-4,4-4l0,0c2.2,0,4,1.8,4,4V46c0,1.7,1.4,3,3,3
			c1.7,0,3-1.4,3-3V30.9C204.1,25.3,199.6,20.8,194.1,20.8"/>
		<path id="path64" class="st0" d="M232.1,20.8L232.1,20.8c-2.6,0-5.2,1-7.1,2.9c-1.9-1.9-4.4-2.9-7.1-2.9l0,0c-5.5,0-10,4.5-10,10
			V46c0,1.7,1.4,3,3,3c1.7,0,3-1.4,3-3v-15c0-2.1,1.6-3.9,3.7-4.1c2.2-0.1,4.1,1.5,4.3,3.7c0,0.1,0,0.2,0,0.3V46c0,1.7,1.3,3,3,3
			h0.1c1.7,0,3-1.3,3-3V30.8c0-2.2,1.8-4,4-4l0,0c2.2,0,4,1.8,4,4V46c0,1.7,1.4,3,3,3c1.7,0,3-1.4,3-3V30.9
			C242.1,25.3,237.6,20.8,232.1,20.8"/>
		<path id="path68" class="st0" d="M270,20.8L270,20.8c-2.7,0-5.2,1-7.1,2.9c-1.9-1.9-4.4-2.9-7.1-2.9l0,0c-5.5,0-10,4.5-10,10V46
			c0,1.7,1.4,3,3,3c1.7,0,3-1.4,3-3v-15c0-2.1,1.6-3.9,3.7-4.1c2.2-0.1,4.1,1.5,4.3,3.7c0,0.1,0,0.2,0,0.3V46c0,1.7,1.3,3,3,3h0.1
			c1.7,0,3-1.3,3-3V30.8c0-2.2,1.8-4,4-4l0,0c2.2,0,4,1.8,4,4V46c0,1.7,1.3,3,3,3.1c0,0,0.1,0,0.1,0l0,0c1.7,0,3-1.3,3-3V30.9
			C280,25.3,275.5,20.8,270,20.8L270,20.8"/>
	</g>
	<g id="icon">
		<path id="path92" class="st0" d="M79.5,3.8l-22.2,10L65.8,28L79.5,4.3V3.8z"/>
		<path id="path72" class="st0" d="M21.6,16.4L23.1,0H0.7L21.6,16.4z"/>
		<path id="path76" class="st1" d="M22,36.4l13.1,1.5L24.8,26.3L22,36.4z"/>
		<path id="path80" class="st1" d="M20.8,22.1L0,5.8c2.5,4.3,8.6,14.9,17.1,29.7L20.8,22.1z"/>
		<path id="path84" class="st1" d="M26.4,17.9L50.9,11L48.5,0H28L26.4,17.9z"/>
		<path id="path88" class="st1" d="M49.8,16.5l-21.7,6.1l13.8,15.5L49.8,16.5z"/>
		<path id="path96" class="st1" d="M55.5,9.2L76,0H53.6L55.5,9.2z"/>
		<path id="path100" class="st1" d="M47.5,37.3l14.7-2.9l0.9-1.5l-8.7-14.4L47.5,37.3z"/>
		<path id="path104" class="st0" d="M38.7,43.3l-18.2-2.1c8.2,14.2,15,26,16.6,28.8L38.7,43.3z"/>
		<path id="path108" class="st1" d="M43.5,44.8l-1.4,24.3l9.2-16L43.5,44.8z"/>
		<path id="path112" class="st1" d="M48,42.3l5.9,6.4l4.9-8.6L48,42.3z"/>
	</g>
</g>
</svg>
