<?xml version="1.0" encoding="utf-8"?>
<!-- Generator: Adobe Illustrator 25.1.0, SVG Export Plug-In . SVG Version: 6.00 Build 0)  -->
<svg version="1.1" id="Layer_1" xmlns="http://www.w3.org/2000/svg" xmlns:xlink="http://www.w3.org/1999/xlink" x="0px" y="0px"
	 viewBox="0 0 32 32" style="enable-background:new 0 0 32 32;" xml:space="preserve">
<style type="text/css">
	.st0{fill:#FFFFFF;}
	.st1{fill:#3F3F3F;}
	.st2{fill:#2DCAFF;}
</style>
<g>
	<polygon class="st0" points="16,28.1 2,3.9 30,3.9 	"/>
	<path id="path92_1_" class="st1" d="M29.2,5.2l-7.3,3.3l2.8,4.6l4.5-7.7V5.2z"/>
	<path id="path72_1_" class="st1" d="M10.2,9.3l0.5-5.4H3.4L10.2,9.3z"/>
	<path id="path76_1_" class="st2" d="M10.4,15.8l4.3,0.5l-3.4-3.8L10.4,15.8z"/>
	<path id="path80_1_" class="st2" d="M9.9,11.2L3.1,5.8l5.6,9.7L9.9,11.2z"/>
	<path id="path84_1_" class="st2" d="M11.8,9.8l8-2.2L19,3.9h-6.7L11.8,9.8z"/>
	<path id="path88_1_" class="st2" d="M19.4,9.3l-7.1,2l4.5,5.1L19.4,9.3z"/>
	<path id="path96_1_" class="st2" d="M21.3,7l6.7-3h-7.3L21.3,7z"/>
	<path id="path100_1_" class="st2" d="M18.7,16.1l4.8-1l0.3-0.5L20.9,10L18.7,16.1z"/>
	<path id="path104_1_" class="st1" d="M15.8,18.1l-6-0.7l5.4,9.5L15.8,18.1z"/>
	<path id="path108_1_" class="st2" d="M17.4,18.6l-0.5,8l3-5.2L17.4,18.6z"/>
	<path id="path112_1_" class="st2" d="M18.8,17.8l1.9,2.1l1.6-2.8L18.8,17.8z"/>
</g>
</svg>
