<?xml version="1.0" encoding="utf-8"?>
<!-- Generator: Adobe Illustrator 25.1.0, SVG Export Plug-In . SVG Version: 6.00 Build 0)  -->
<svg version="1.1" id="Layer_1" xmlns="http://www.w3.org/2000/svg" xmlns:xlink="http://www.w3.org/1999/xlink" x="0px" y="0px"
	 viewBox="0 0 128 128" style="enable-background:new 0 0 128 128;" xml:space="preserve">
<style type="text/css">
	.st0{fill:#F1F1F1;}
	.st1{fill:#3F3F3F;}
	.st2{fill:#2DCAFF;}
</style>
<path class="st0" d="M20,0h88c11,0,20,9,20,20v88c0,11-9,20-20,20H20c-11,0-20-9-20-20V20C0,9,9,0,20,0z"/>
<g>
	<path id="path92" class="st1" d="M120,20.1L88.8,34.2l12,19.9L120,20.7V20.1z"/>
	<path id="path72" class="st1" d="M38.4,37.8l2.1-23.2H9L38.4,37.8z"/>
	<path id="path76" class="st2" d="M39,66l18.4,2L42.9,51.7L39,66z"/>
	<path id="path80" class="st2" d="M37.3,45.9L8,22.8l24.1,41.8L37.3,45.9z"/>
	<path id="path84" class="st2" d="M45.2,39.8l34.4-9.7l-3.3-15.5H47.5L45.2,39.8z"/>
	<path id="path88" class="st2" d="M78.1,37.9l-30.5,8.6L67,68.4L78.1,37.9z"/>
	<path id="path96" class="st2" d="M86.2,27.7l28.8-13H83.4L86.2,27.7z"/>
	<path id="path100" class="st2" d="M74.9,67.2l20.6-4.1l1.3-2.1L84.5,40.7L74.9,67.2z"/>
	<path id="path104" class="st1" d="M62.4,75.6l-25.7-2.9c11.6,20,21.1,36.6,23.5,40.6L62.4,75.6z"/>
	<path id="path108" class="st2" d="M69.3,77.7l-2,34.3l13-22.5L69.3,77.7z"/>
	<path id="path112" class="st2" d="M75.6,74.2l8.3,9l7-12L75.6,74.2z"/>
</g>
</svg>
